<svg xmlns="http://www.w3.org/2000/svg" width="40" height="38.201" viewBox="0 0 40 38.201">
  <path id="ai_-_icon" data-name="ai - icon" d="M17.2,35.723,14.529,45.845c-.057.28-.169.344-.5.344H9.072c-.338,0-.388-.111-.338-.5l9.589-33.578A10.415,10.415,0,0,0,18.655,9.3c0-.223.111-.338.28-.338h7.077c.223,0,.338.061.392.338L37.157,45.744c.057.28,0,.446-.28.446H31.306c-.28,0-.446-.068-.5-.29l-2.786-10.18H17.193Zm9.413-5.487c-.945-3.734-3.174-11.912-4.011-15.869h-.057c-.723,3.95-2.505,10.636-3.9,15.869ZM41.81,11.47a3.454,3.454,0,1,1,6.908,0,3.235,3.235,0,0,1-3.511,3.454A3.174,3.174,0,0,1,41.8,11.47Zm.378,7.678c0-.27.111-.371.392-.371h5.3c.3,0,.405.111.405.392V45.825c0,.28-.054.392-.388.392H42.664c-.338,0-.449-.169-.449-.439V19.145Z" transform="translate(-8.718 -8.016)" fill="#64f4ab"/>
</svg>
