<svg xmlns="http://www.w3.org/2000/svg" xmlns:xlink="http://www.w3.org/1999/xlink" width="35" height="31.501" viewBox="0 0 35 31.501">
  <defs>
    <linearGradient id="linear-gradient" x1="0.5" x2="0.5" y2="1" gradientUnits="objectBoundingBox">
      <stop offset="0" stop-color="#64f4ab"/>
      <stop offset="1" stop-color="#327a56"/>
    </linearGradient>
  </defs>
  <g id="email_-_icon" data-name="email - icon" transform="translate(-2 -3)">
    <path id="Path_105" data-name="Path 105" d="M27.42,3H11.548C6,3,2,7.484,2,13.254V24.248C2,30.02,6,34.5,11.548,34.5H27.4a9.664,9.664,0,0,0,7-3.1,9.8,9.8,0,0,0,2.583-7.23l0-10.915A9.724,9.724,0,0,0,27.42,3ZM11.548,5.674H27.39a7.009,7.009,0,0,1,5.066,2.254,7.112,7.112,0,0,1,1.876,5.247l0,11.073a7.17,7.17,0,0,1-1.873,5.326,7.009,7.009,0,0,1-5.066,2.254H11.548c-4.013,0-6.894-3.227-6.894-7.58V13.254c0-4.352,2.881-7.578,6.9-7.578Zm18.495,7.193a1.321,1.321,0,0,0-1.866-.208L21,18.443l-.2.145a2.415,2.415,0,0,1-2.767-.156L10.8,12.657l-.161-.112a1.321,1.321,0,0,0-1.7.327,1.344,1.344,0,0,0,.214,1.88l7.237,5.784.282.2a5.058,5.058,0,0,0,5.978-.2l7.188-5.795.144-.135a1.344,1.344,0,0,0,.063-1.747Z" fill-rule="evenodd" fill="url(#linear-gradient)"/>
  </g>
</svg>
