<svg xmlns="http://www.w3.org/2000/svg" xmlns:xlink="http://www.w3.org/1999/xlink" width="482" height="481.999" viewBox="0 0 482 481.999">
  <defs>
    <linearGradient id="linear-gradient" x1="0.5" x2="0.5" y2="1" gradientUnits="objectBoundingBox">
      <stop offset="0" stop-color="#64f4ab"/>
      <stop offset="1" stop-color="#327a56" stop-opacity="0"/>
    </linearGradient>
  </defs>
  <path id="green_circle_3_-_shape" data-name="green circle 3 - shape" d="M-2191,482a242.78,242.78,0,0,1-48.57-4.9,239.788,239.788,0,0,1-45.238-14.043,241.018,241.018,0,0,1-40.937-22.22,242.746,242.746,0,0,1-35.667-29.428,242.759,242.759,0,0,1-29.428-35.667,241.051,241.051,0,0,1-22.22-40.937,239.8,239.8,0,0,1-14.042-45.238A242.776,242.776,0,0,1-2432,241a242.776,242.776,0,0,1,4.9-48.57,239.8,239.8,0,0,1,14.042-45.238,241.05,241.05,0,0,1,22.22-40.937,242.758,242.758,0,0,1,29.428-35.667,242.746,242.746,0,0,1,35.667-29.428,241.017,241.017,0,0,1,40.937-22.22A239.788,239.788,0,0,1-2239.57,4.9,242.778,242.778,0,0,1-2191,0a242.78,242.78,0,0,1,48.57,4.9,239.78,239.78,0,0,1,45.238,14.043,241.009,241.009,0,0,1,40.938,22.22,242.725,242.725,0,0,1,35.667,29.428,242.744,242.744,0,0,1,29.428,35.667,241.032,241.032,0,0,1,22.22,40.937A239.79,239.79,0,0,1-1954.9,192.43,242.784,242.784,0,0,1-1950,241a242.783,242.783,0,0,1-4.9,48.57,239.791,239.791,0,0,1-14.043,45.238,241.033,241.033,0,0,1-22.22,40.937,242.744,242.744,0,0,1-29.428,35.667,242.727,242.727,0,0,1-35.667,29.428,241.008,241.008,0,0,1-40.937,22.22A239.78,239.78,0,0,1-2142.43,477.1,242.782,242.782,0,0,1-2191,482Zm0-366.475A125.618,125.618,0,0,0-2316.477,241,125.618,125.618,0,0,0-2191,366.476,125.618,125.618,0,0,0-2065.524,241,125.618,125.618,0,0,0-2191,115.524Z" transform="translate(2432)" opacity="0.8" fill="url(#linear-gradient)"/>
</svg>
