<svg xmlns="http://www.w3.org/2000/svg" width="36.13" height="40" viewBox="0 0 36.13 40">
  <path id="id_-_icon" data-name="id - icon" d="M16.918,47.449c0,.359-.061.473-.473.473H10.936c-.359,0-.473-.179-.473-.473V8.948c0-.359.179-.473.473-.473h5.569c.294,0,.412.118.412.416V47.449Zm6.347-13.886c0-8.582,5.659-15.266,14.71-15.266.767,0,1.183,0,1.893.054V8.834a.346.346,0,0,1,.359-.359h5.828c.3,0,.359.122.359.3V42.325a26.712,26.712,0,0,0,.179,3.6c0,.237-.072.3-.312.416a21.743,21.743,0,0,1-9.41,2.134c-7.936,0-13.617-4.913-13.617-14.911Zm16.6-9.41a5.315,5.315,0,0,0-2.13-.359c-4.608,0-7.843,3.55-7.843,9.467,0,6.749,3.292,9.467,7.434,9.467a6.94,6.94,0,0,0,2.546-.412V24.154Z" transform="translate(-10.463 -8.475)" fill="#64f4ab"/>
</svg>
