<svg xmlns="http://www.w3.org/2000/svg" width="40" height="35.447" viewBox="0 0 40 35.447">
  <path id="ps_-_icon" data-name="ps - icon" d="M8.7,8.947c0-.212.444-.368.71-.368,2.04-.1,5.031-.158,8.168-.158,8.783,0,12.2,4.816,12.2,10.981,0,8.048-5.836,11.5-13,11.5-1.2,0-1.616-.054-2.455-.054V43.022c0,.263-.1.368-.364.368H9.068c-.263,0-.364-.1-.364-.358V8.947Zm5.624,16.83c.729.051,1.305.051,2.566.051,3.707,0,7.192-1.305,7.192-6.324,0-4.024-2.49-6.064-6.723-6.064-1.255,0-2.455.051-3.032.1V25.787Zm27.27-3.764c-2.509,0-3.346,1.255-3.346,2.3,0,1.15.57,1.933,3.919,3.659,4.968,2.408,6.533,4.7,6.533,8.1,0,5.069-3.865,7.794-9.093,7.794a13.842,13.842,0,0,1-6.5-1.362c-.206-.1-.253-.26-.253-.523V37.335c0-.317.152-.421.361-.266a11.672,11.672,0,0,0,6.375,1.882c2.509,0,3.555-1.046,3.555-2.459,0-1.15-.729-2.145-3.919-3.818-4.5-2.154-6.381-4.341-6.381-8.006,0-4.078,3.187-7.477,8.729-7.477a14.768,14.768,0,0,1,5.684.887.691.691,0,0,1,.317.627v4.341c0,.263-.158.421-.475.317A11.346,11.346,0,0,0,41.581,22Z" transform="translate(-8.7 -8.421)" fill="#64f4ab"/>
</svg>
