<svg xmlns="http://www.w3.org/2000/svg" width="40.706" height="30.378" viewBox="0 0 40.706 30.378">
  <path id="xd_-_icon" data-name="xd - icon" d="M20.631,23.591,28.406,38.53c.139.222.056.444-.167.444H23.408a.545.545,0,0,1-.583-.361c-1.777-3.665-3.582-7.331-5.442-11.274h-.056c-1.666,3.721-3.5,7.636-5.276,11.3a.533.533,0,0,1-.5.305H6.969c-.278,0-.305-.222-.167-.389l7.608-14.495L7.052,9.4a.224.224,0,0,1,.167-.389H12a.437.437,0,0,1,.5.305c1.749,3.665,3.526,7.442,5.193,11.135h.056c1.611-3.665,3.388-7.469,5.109-11.107.139-.222.222-.361.5-.361h4.471c.222,0,.305.167.167.389Zm9.136,4.526c0-6.47,4.3-11.524,11.135-11.524a12.314,12.314,0,0,1,1.444.056V9.29a.278.278,0,0,1,.278-.278H47.01c.222,0,.278.083.278.222V34.726a19.778,19.778,0,0,0,.139,2.721c0,.167-.056.222-.222.305A16.54,16.54,0,0,1,40.1,39.363C34.07,39.39,29.766,35.67,29.766,28.117Zm12.579-7.108a4.2,4.2,0,0,0-1.611-.278c-3.5,0-5.942,2.693-5.942,7.164,0,5.109,2.5,7.164,5.637,7.164a5.239,5.239,0,0,0,1.916-.305V21.008Z" transform="translate(-6.721 -8.985)" fill="#64f4ab"/>
</svg>
