<svg xmlns="http://www.w3.org/2000/svg" xmlns:xlink="http://www.w3.org/1999/xlink" width="370" height="370" viewBox="0 0 370 370">
  <defs>
    <linearGradient id="linear-gradient" x1="0.5" x2="0.5" y2="1" gradientUnits="objectBoundingBox">
      <stop offset="0" stop-color="#fecd1a"/>
      <stop offset="1" stop-color="#ffaf29" stop-opacity="0"/>
    </linearGradient>
  </defs>
  <path id="yellow_circle_-_shape_-_portfolio_section" data-name="yellow circle - shape - portfolio section" d="M-2247,370a186.366,186.366,0,0,1-37.284-3.759,184.07,184.07,0,0,1-34.727-10.78,185.009,185.009,0,0,1-31.425-17.057,186.318,186.318,0,0,1-27.38-22.59,186.317,186.317,0,0,1-22.59-27.38,185,185,0,0,1-17.057-31.425,184.057,184.057,0,0,1-10.78-34.726A186.379,186.379,0,0,1-2432,185a186.378,186.378,0,0,1,3.759-37.284,184.059,184.059,0,0,1,10.78-34.726,185,185,0,0,1,17.057-31.425,186.316,186.316,0,0,1,22.59-27.379,186.329,186.329,0,0,1,27.38-22.59,185.011,185.011,0,0,1,31.425-17.057,184.072,184.072,0,0,1,34.727-10.78A186.368,186.368,0,0,1-2247,0a186.368,186.368,0,0,1,37.284,3.758,184.071,184.071,0,0,1,34.726,10.78,185.015,185.015,0,0,1,31.425,17.057,186.329,186.329,0,0,1,27.38,22.59,186.316,186.316,0,0,1,22.59,27.379,185.009,185.009,0,0,1,17.057,31.425,184.091,184.091,0,0,1,10.78,34.726A186.363,186.363,0,0,1-2062,185a186.363,186.363,0,0,1-3.759,37.284,184.091,184.091,0,0,1-10.78,34.726,185.013,185.013,0,0,1-17.057,31.425,186.317,186.317,0,0,1-22.59,27.38,186.318,186.318,0,0,1-27.38,22.59,185,185,0,0,1-31.425,17.057,184.063,184.063,0,0,1-34.726,10.78A186.366,186.366,0,0,1-2247,370Zm0-278.355A93.46,93.46,0,0,0-2340.355,185,93.461,93.461,0,0,0-2247,278.355,93.461,93.461,0,0,0-2153.645,185,93.46,93.46,0,0,0-2247,91.645Z" transform="translate(2432.001)" opacity="0.8" fill="url(#linear-gradient)"/>
</svg>
